# xmcd CD database file
#
# Track frame offsets:
#	150
#	23892
#	65361
#	97994
#	118439
#	141191
#	171635
#	196394
#
# Disc length: 3281 seconds
#
# Revision: 0
# Processed by: cddbd v1.5.2PL0 Copyright (c) Steve Scherf et al.
# Submitted via: CDex 1.51
#
DISCID=760ccf08
DTITLE=Gregory Porter - Olympia Paris - Blue Note Festival (1|2)
DYEAR=2014
DGENRE=Jazz
TTITLE0=Gregory Porter - Someday We'll All Be Free
TTITLE1=Gregory Porter - On My Way to Harlem
TTITLE2=Gregory Porter - No Love Dying
TTITLE3=Gregory Porter - Hey Laura
TTITLE4=Gregory Porter - Liquid Spirit
TTITLE5=Gregory Porter - Wolfcry
TTITLE6=Gregory Porter - Grandma's Hands
TTITLE7=Gregory Porter - Work Song
EXTD=YEAR: 2014
EXTT0=
EXTT1=
EXTT2=
EXTT3=
EXTT4=
EXTT5=
EXTT6=
EXTT7=
PLAYORDER=
